<svg width="12" height="12" viewBox="0 0 12 12" fill="none" xmlns="http://www.w3.org/2000/svg">
<path d="M7.76664 5.99997L11.6 2.16664C12.0833 1.68331 12.0833 0.883309 11.6 0.399976C11.1166 -0.0833577 10.3166 -0.0833577 9.83331 0.399976L5.99997 4.23331L2.16664 0.399976C1.68331 -0.0833577 0.883309 -0.0833577 0.399976 0.399976C-0.0833577 0.883309 -0.0833577 1.68331 0.399976 2.16664L4.23331 5.99997L0.399976 9.83331C-0.0833577 10.3166 -0.0833577 11.1166 0.399976 11.6C0.649976 11.85 0.966642 11.9666 1.28331 11.9666C1.59998 11.9666 1.91664 11.85 2.16664 11.6L5.99997 7.76664L9.83331 11.6C10.0833 11.85 10.4 11.9666 10.7166 11.9666C11.0333 11.9666 11.35 11.85 11.6 11.6C12.0833 11.1166 12.0833 10.3166 11.6 9.83331L7.76664 5.99997Z" fill="black"/>
</svg>
