<svg width="32" height="32" viewBox="0 0 32 32" fill="none" xmlns="http://www.w3.org/2000/svg">
<path opacity="0.2" d="M2.66671 16.0003C2.66671 23.3641 8.63624 29.3337 16 29.3337C23.3638 29.3337 29.3334 23.3641 29.3334 16.0003C29.3334 8.63653 23.3638 2.66699 16 2.66699C8.63624 2.66699 2.66671 8.63653 2.66671 16.0003Z" fill="#227B82"/>
<path d="M13.32 20.7069C13.32 20.4535 13.4133 20.2002 13.6133 20.0002L17.6133 16.0002L13.6133 12.0002C13.2266 11.6135 13.2266 10.9735 13.6133 10.5869C14 10.2002 14.64 10.2002 15.0266 10.5869L19.7333 15.2935C20.12 15.6802 20.12 16.3202 19.7333 16.7069L15.0266 21.4135C14.64 21.8002 14 21.8002 13.6133 21.4135C13.4133 21.2135 13.32 20.9602 13.32 20.7069Z" fill="#227B82"/>
</svg>
